Coordinates
version=1
nRows=17
nColumns=36
inDegrees=yes

Units are S.I. units (second, meters, Newtons, ...)
If the header above contains a line with 'inDegrees', this indicates whether rotational values are in degrees (yes) or radians (no).

endheader
time	pelvis_tilt	pelvis_list	pelvis_rotation	pelvis_tx	pelvis_ty	pelvis_tz	hip_flexion_r	hip_adduction_r	hip_rotation_r	knee_angle_r	knee_angle_r_beta	ankle_angle_r	subtalar_angle_r	mtp_angle_r	hip_flexion_l	hip_adduction_l	hip_rotation_l	knee_angle_l	knee_angle_l_beta	ankle_angle_l	subtalar_angle_l	mtp_angle_l	lumbar_extension	lumbar_bending	lumbar_rotation	arm_flex_r	arm_add_r	arm_rot_r	elbow_flex_r	pro_sup_r	arm_flex_l	arm_add_l	arm_rot_l	elbow_flex_l	pro_sup_l
      1.71666670	     -1.95671592	      0.89870015	      0.51957302	     -0.93070676	      1.24538114	     -0.04275893	     -5.07165553	     -0.98575395	      0.17178538	      0.53766438	      0.00938401	      6.06262720	     -8.63105460	     -7.49999987	     -5.21591865	      0.00101866	     -7.25550279	      1.16695830	      0.02036726	      8.19680397	      2.19917297	     -7.49999987	     -3.42470917	      1.73455803	      0.02515140	      4.99990523	    -10.39693265	     40.01413608	     31.81078925	     60.36098836	      6.03080060	     -9.47362334	     40.96444708	     35.10744887	     58.34699710
      1.72083330	     -2.00503543	      0.91328389	      0.54290443	     -0.93173982	      1.25001777	     -0.04295378	     -4.97906649	     -1.02002079	     -0.01775270	      0.53878927	      0.00940365	      6.10599925	     -8.44652500	     -7.49999987	     -5.13628249	      0.03953419	     -7.10084382	      1.15387914	      0.02013899	      8.01249032	      1.92220778	     -7.49999987	     -3.42495758	      1.73405046	      0.02476809	      5.03945438	    -10.41004001	     39.99860595	     31.75064332	     60.43081742	      6.10263688	     -9.44076740	     41.11982748	     35.01464396	     58.19827772
      1.72500000	     -1.98537485	      0.90933513	      0.55038896	     -0.93168296	      1.25066001	     -0.04272416	     -4.95398483	     -1.01872274	     -0.01669083	      0.56071870	      0.00978639	      6.10603062	     -8.44660789	     -7.49999987	     -5.13718387	      0.04647155	     -7.10089822	      1.15428619	      0.02014609	      8.01071677	      1.92372598	     -7.49999987	     -3.42630384	      1.73520327	      0.02506319	      5.04097160	    -10.40921066	     39.99855911	     31.75083146	     60.43091147	      6.10341357	     -9.44082439	     41.11982749	     35.01414160	     58.19800982
      1.72916670	     -2.12386229	      0.93963686	      0.55114556	     -0.93231636	      1.24650214	     -0.04333346	     -4.75100435	     -1.06056623	      0.08947990	      0.53611449	      0.00935696	      5.94655691	     -8.72367682	     -7.49999987	     -4.93157298	      0.10729989	     -7.14682282	      1.15668136	      0.02018790	      7.91819721	      2.00866350	     -7.49999987	     -3.40783690	      1.71785917	      0.01061835	      5.16979947	    -10.36445716	     39.92343536	     31.66440325	     60.44231995	      6.22113986	     -9.38335439	     41.03256945	     34.92269750	     58.12422571
      1.73333330	     -2.22616487	      0.93302459	      0.56094602	     -0.93190683	      1.24321002	     -0.04316566	     -4.59033919	     -1.05926914	      0.03995926	      0.55349132	      0.00966025	      5.99197697	     -8.74350451	     -7.49999987	     -4.78450925	      0.11091972	     -7.16016404	      1.17006881	      0.02042155	      7.95987134	      1.95431860	     -7.49999987	     -3.42099467	      1.71772008	      0.01151212	      5.18066066	    -10.41565394	     39.90788585	     31.79709782	     60.43985350	      6.23091920	     -9.43067474	     41.01688488	     35.04830277	     58.12944321
      1.73750000	     -2.11861691	      0.90567766	      0.57806782	     -0.93169735	      1.24758231	     -0.04286212	     -4.69094455	     -1.03308224	     -0.08971768	      0.56250569	      0.00981758	      6.09814806	     -8.57194091	     -7.49999987	     -4.88719796	      0.09252132	     -6.99358672	      1.19245775	      0.02081231	      8.02856847	      1.82320605	     -7.49999987	     -3.48511976	      1.75804635	     -0.02095964	      5.22690323	    -10.39006027	     39.87631270	     31.68909334	     60.45478899	      6.22952288	     -9.34861235	     40.96036485	     34.88262605	     58.07541002
      1.74166670	     -2.10755634	      0.90406183	      0.58426175	     -0.93210607	      1.24918823	     -0.04269071	     -4.67413007	     -1.03029266	     -0.08750277	      0.57269628	      0.00999544	      6.09786964	     -8.57229191	     -7.49999987	     -4.88214359	      0.09520328	     -6.99319422	      1.19172884	      0.02079959	      8.02688224	      1.82463603	     -7.49999987	     -3.48433952	      1.75759804	     -0.01870288	      5.22958283	    -10.39151083	     39.87637481	     31.69012235	     60.45502548	      6.22859722	     -9.35008209	     40.96064555	     34.88289225	     58.07520580
      1.74583330	     -2.13540609	      0.92566697	      0.55906194	     -0.93118097	      1.24416810	     -0.04318207	     -4.65862575	     -1.04542548	      0.19263979	      0.56558629	      0.00987134	      5.91110662	     -8.94522928	     -7.49999987	     -4.81975568	      0.10320013	     -7.09848928	      1.25846094	      0.02196429	      8.04475958	      1.92634977	     -7.49999987	     -3.49802723	      1.72547176	      0.05830681	      5.23249712	    -10.49480542	     40.00187842	     31.90510480	     60.57170269	      6.21385881	     -9.42570494	     40.96469644	     35.11610680	     58.00275611
      1.75000000	     -2.14947261	      0.92771177	      0.55431255	     -0.93242446	      1.24756736	     -0.04204021	     -4.65672324	     -1.03323885	      0.19158741	      0.57289292	      0.00999887	      5.91185460	     -8.94597653	     -7.49999987	     -4.80748325	      0.09848078	     -7.09551969	      1.25400120	      0.02188645	      8.04542746	      1.92746063	     -7.49999987	     -3.49517102	      1.72371460	      0.05639727	      5.23259412	    -10.49638950	     40.00171668	     31.90577098	     60.57185055	      6.21518026	     -9.42619062	     40.96464801	     35.11623111	     58.00253265
      1.75416670	     -2.19987463	      0.89050073	      0.51317149	     -0.93212948	      1.24973746	     -0.04251471	     -4.60809979	     -0.97571289	      0.24987510	      0.57386001	      0.01001575	      5.87800155	     -8.89502448	     -7.49999987	     -4.74720204	      0.03923277	     -7.12101431	      1.26465062	      0.02207232	      7.99467921	      2.01272739	     -7.49999987	     -3.45098782	      1.70988915	      0.02888981	      5.26144029	    -10.46461845	     39.98833362	     31.94960286	     60.68502367	      6.18921390	     -9.46024756	     40.79624286	     35.06806748	     58.33774425
      1.75833330	     -2.21226915	      0.89742957	      0.52315774	     -0.93154195	      1.24698248	     -0.04322870	     -4.62198778	     -0.99320983	      0.27150955	      0.56652775	      0.00988777	      5.86910164	     -8.81660312	     -7.49999987	     -4.71663358	      0.04531802	     -7.08719994	      1.27216997	      0.02220355	      7.95613118	      1.89727883	     -7.49999987	     -3.42195324	      1.68976372	      0.03280554	      5.24250793	    -10.48129629	     40.03116259	     31.96689902	     60.82095558	      6.20408257	     -9.48731068	     40.84471937	     35.08521939	     58.38717716
      1.76250000	     -2.22485974	      0.89697626	      0.52676970	     -0.93066609	      1.24626416	     -0.04275933	     -4.64065439	     -0.99402438	      0.27341850	      0.57947526	      0.01011375	      5.86672373	     -8.81483092	     -7.49999987	     -4.71710289	      0.04404380	     -7.08748488	      1.27355148	      0.02222767	      7.95612189	      1.89674625	     -7.49999987	     -3.42237203	      1.68913177	      0.03259610	      5.24229552	    -10.48212212	     40.03116639	     31.96697817	     60.82100276	      6.20440612	     -9.48678878	     40.84479947	     35.08561598	     58.38692155
      1.76666670	     -2.18922687	      0.92121752	      0.54256475	     -0.93057083	      1.24736501	     -0.04281260	     -4.74198568	     -1.02457756	      0.39224131	      0.55998237	      0.00977354	      5.72555596	     -8.85782303	     -7.49999987	     -4.78478331	      0.07468970	     -7.02948869	      1.27310681	      0.02221991	      7.90801671	      1.58084877	     -7.49999987	     -3.42544138	      1.63075807	      0.06429228	      5.11511567	    -10.55103757	     40.04013265	     32.15819379	     61.00249864	      6.14491584	     -9.53427282	     40.88412451	     35.29201188	     58.41483295
      1.77083330	     -2.13929715	      0.92668231	      0.60887097	     -0.93071671	      1.24692943	     -0.04287265	     -4.83786832	     -1.03354010	      0.13572843	      0.55818186	      0.00974211	      5.80945879	     -8.45880245	     -7.49999987	     -4.85263868	      0.07560193	     -7.02586800	      1.28565512	      0.02243891	      7.88518151	      1.54480171	     -7.49999987	     -3.43424930	      1.61498007	      0.02676227	      5.09293518	    -10.49368485	     39.89426915	     32.08091604	     60.92698578	      6.15152842	     -9.49814314	     40.74993305	     35.19502863	     58.27250992
      1.77500000	     -2.14790349	      0.92259897	      0.60460823	     -0.93157920	      1.24874149	     -0.04335040	     -4.83687046	     -1.03563920	      0.13835493	      0.57313308	      0.01000306	      5.80795262	     -8.45791371	     -7.49999987	     -4.84771775	      0.07850308	     -7.02642056	      1.28374270	      0.02240554	      7.88443646	      1.54462193	     -7.49999987	     -3.43224822	      1.61322281	      0.02689688	      5.09352063	    -10.49367681	     39.89431740	     32.08175571	     60.92704379	      6.15111547	     -9.49768442	     40.75018697	     35.19564421	     58.27222495
      1.77916670	     -2.17930214	      0.91727665	      0.52394649	     -0.93120950	      1.24817812	     -0.04310023	     -4.80329543	     -1.04797721	      0.47693978	      0.55599091	      0.00970387	      5.52018469	     -8.84839037	     -7.49999987	     -4.82254540	      0.09026361	     -7.26393821	      1.28412801	      0.02241226	      7.93595926	      1.68951210	     -7.49999987	     -3.43234879	      1.62422314	      0.12212582	      4.97343478	    -10.43570017	     39.13034755	     32.15775699	     60.62587641	      6.00938340	     -9.29546233	     39.79784922	     35.12058319	     58.44492445
      1.78333330	     -2.18043228	      0.92106657	      0.53204594	     -0.93209571	      1.25160557	     -0.04157934	     -4.78490501	     -1.03656317	      0.47612012	      0.57223606	      0.00998740	      5.51970622	     -8.84736351	     -7.49999987	     -4.81929143	      0.08542742	     -7.26078895	      1.28113995	      0.02236011	      7.93350042	      1.69053872	     -7.49999987	     -3.42908976	      1.62456740	      0.12198538	      4.97581320	    -10.43780803	     39.13106347	     32.15906180	     60.62628142	      6.01008936	     -9.29474070	     39.79918216	     35.12148701	     58.44489865
